<?xml version="1.0" encoding="UTF-8"?>
<svg xmlns="http://www.w3.org/2000/svg" xmlns:xlink="http://www.w3.org/1999/xlink" width="48px" height="48px" viewBox="0 0 48 48" version="1.1">
<g id="surface1">
<path style=" stroke:none;fill-rule:nonzero;fill:rgb(6.27451%,36.078432%,56.470591%);fill-opacity:1;" d="M 47.625 23.8125 C 47.625 10.660156 36.964844 0 23.8125 0 C 10.660156 0 0 10.660156 0 23.8125 C 0 36.964844 10.660156 47.625 23.8125 47.625 C 36.964844 47.625 47.625 36.964844 47.625 23.8125 Z M 47.625 23.8125 "/>
<path style=" stroke:none;fill-rule:nonzero;fill:rgb(100%,100%,100%);fill-opacity:1;" d="M 26.53125 21.628906 L 37.15625 9.542969 L 34.640625 9.542969 L 25.410156 20.035156 L 18.042969 9.542969 L 9.542969 9.542969 L 20.6875 25.410156 L 9.542969 38.082031 L 12.058594 38.082031 L 21.800781 27 L 29.585938 38.082031 L 38.082031 38.082031 Z M 23.082031 25.550781 L 21.953125 23.96875 L 12.96875 11.398438 L 16.835938 11.398438 L 24.085938 21.546875 L 25.214844 23.128906 L 34.640625 36.316406 L 30.769531 36.316406 Z M 23.082031 25.550781 "/>
</g>
</svg>
